# Blender 4.4.3
# www.blender.org
mtllib Fed_cruiser_ship.mtl
o Fed_Cruiser
v 0.000000 1.059807 -2.139892
v -0.500000 1.059807 -2.139892
v -0.500000 0.030809 -2.139892
v -0.288031 -0.291133 -2.139892
v 0.000000 -0.291133 -2.139892
v 0.000000 -1.143332 1.000000
v 0.000000 -1.143332 -1.000000
v -0.076425 -1.143332 -1.000000
v -0.076425 -1.143332 1.000000
v -0.500000 -0.500000 1.000000
v -0.500000 -0.500000 -1.000000
v -0.500000 0.500000 1.000000
v -0.500000 1.059807 -1.000000
v 0.000000 1.059807 -1.000000
v 0.000000 0.500000 1.000000
v 0.000000 0.500000 -3.364187
v -0.500000 0.500000 -3.364187
v -0.500000 0.030809 -3.364187
v -0.288031 -0.291133 -3.364187
v 0.000000 -0.291133 -3.364187
v 0.000000 0.500000 -4.062410
v -0.500000 0.500000 -4.062410
v -0.500000 0.030809 -4.062410
v -0.288031 -0.291133 -4.062410
v 0.000000 -0.291133 -4.062410
v 0.000000 0.216597 -4.588414
v -0.332570 0.216597 -4.588414
v -0.332570 0.071493 -4.588414
v -0.267015 -0.028072 -4.588414
v 0.000000 -0.028072 -4.588414
v 0.000000 1.059807 -2.139892
v -0.244124 1.059807 -2.139892
v -0.244124 0.500000 1.000000
v -0.244124 1.059807 -1.000000
v 0.000000 1.059807 -1.000000
v 0.000000 0.500000 1.000000
v 0.000000 0.500000 -3.364187
v -0.244124 0.500000 -3.364187
v 0.000000 0.500000 -4.062410
v -0.244124 0.500000 -4.062410
v 0.000000 1.146521 -2.143168
v 0.000000 1.146521 -1.003276
v -0.244124 1.146521 -2.143168
v -0.244124 1.146521 -1.003276
v 0.000000 0.867521 0.996724
v -0.244124 0.867521 0.996724
v 0.000000 0.586714 -3.367463
v -0.244124 0.586714 -3.367463
v 0.000000 0.586714 -3.972589
v -0.244124 0.586714 -3.972589
v -0.244124 0.500000 1.375165
v 0.000000 0.867521 1.375165
v -0.244124 0.867521 1.375165
v 0.000000 0.500000 1.375165
v -0.753684 0.544764 -2.409126
v -0.753684 0.544764 -0.365536
v -0.753684 0.120800 -0.365536
v -0.753684 -0.245820 -2.409126
v -0.753684 0.544764 -1.510707
v -0.753684 -0.245820 -1.510707
v -0.753684 -0.568458 -0.365536
v -0.753684 -0.568458 -1.460730
v -0.809597 0.285228 -3.108860
v -0.809597 0.009495 -3.108860
v -0.753684 0.435027 1.028621
v -0.753684 0.285470 1.028621
v -0.753684 -0.086024 1.028621
v 0.000000 -0.567364 2.555666
v -0.431675 -0.567364 2.555666
v -0.855250 0.075968 2.555666
v -0.855250 0.500000 2.555666
v 0.000000 -0.567364 3.851099
v -0.351652 -0.418867 3.851099
v -0.706752 0.120464 3.851099
v -0.855250 0.500000 3.851099
v -0.500923 1.290218 2.555666
v 0.000000 1.290218 2.555666
v -0.404766 1.141721 3.851099
v 0.000000 1.290218 3.851099
v 0.000000 0.500000 1.698049
v -0.662338 0.500000 1.698049
v -0.617644 0.500000 2.555666
v -0.342585 0.500000 1.698049
v 0.000000 0.867521 2.538781
v -0.244124 0.867521 2.538781
v -0.244124 0.500000 2.538781
v 0.000000 0.500000 2.538781
v -0.431675 -0.567364 3.851099
v 0.000000 -0.418867 3.851099
v -0.855250 0.075968 3.851099
v -0.706752 0.468231 3.851099
v 0.000000 1.141721 3.851099
v -0.500923 1.290218 3.851099
v -1.040119 0.501895 -2.297261
v -1.040119 0.501895 -0.422404
v -1.040119 0.112936 -0.422404
v -1.040119 -0.223413 -2.297261
v -1.040119 0.501895 -1.473023
v -1.040119 -0.223413 -1.473023
v -1.040119 -0.489370 -0.422404
v -1.040119 -0.489370 -1.427172
v -0.984207 0.269072 -3.108860
v -0.984207 0.013178 -3.108860
v -1.040119 0.401218 0.856641
v -1.040119 0.264010 0.856641
v -1.040119 -0.076811 0.856641
v -0.770959 0.497859 -0.253063
v -0.770959 0.073895 -0.253063
v -0.770959 0.497859 -1.585239
v -0.770959 -0.292725 -1.585239
v -0.292540 0.497859 -1.585239
v -0.292540 0.497859 -0.253063
v -0.292540 0.073895 -0.253063
v -0.292540 -0.292725 -1.585239
v -0.672559 0.437808 3.751414
v 0.000000 0.466838 3.751414
v 0.000000 -0.323201 3.751414
v 0.000000 1.053255 3.751414
v -0.348062 -0.323201 3.751414
v -0.672559 0.169650 3.751414
v -0.396598 1.053254 3.751414
v -1.157100 0.468941 -1.450125
v -1.157100 0.468941 -0.518753
v -1.157100 -0.174045 -1.450125
v -1.157100 -0.174045 -2.180813
v -1.157100 0.468941 -2.180813
v -1.157100 0.124129 -0.518753
v -1.157100 0.307735 -2.821864
v -1.157100 -0.012839 -2.821864
v -1.157100 0.379691 0.615121
v -1.157100 0.258055 0.615121
v -0.753684 0.346553 -3.108860
v -0.753684 -0.047609 -3.108860
v -1.040119 0.320049 -3.108860
v -1.040119 -0.041568 -3.108860
v -0.809597 0.285228 -2.205640
v -0.809597 0.009495 -2.205640
v -0.984207 0.269072 -2.205640
v -0.984207 0.013178 -2.205640
v 0.500000 1.059807 -2.139892
v 0.500000 0.030809 -2.139892
v 0.288031 -0.291133 -2.139892
v 0.076425 -1.143332 -1.000000
v 0.076425 -1.143332 1.000000
v 0.500000 -0.500000 1.000000
v 0.500000 -0.500000 -1.000000
v 0.500000 0.500000 1.000000
v 0.500000 1.059807 -1.000000
v 0.500000 0.500000 -3.364187
v 0.500000 0.030809 -3.364187
v 0.288031 -0.291133 -3.364187
v 0.500000 0.500000 -4.062410
v 0.500000 0.030809 -4.062410
v 0.288031 -0.291133 -4.062410
v 0.332570 0.216597 -4.588414
v 0.332570 0.071493 -4.588414
v 0.267015 -0.028072 -4.588414
v 0.244124 1.059807 -2.139892
v 0.244124 0.500000 1.000000
v 0.244124 1.059807 -1.000000
v 0.244124 0.500000 -3.364187
v 0.244124 0.500000 -4.062410
v 0.244124 1.146521 -2.143168
v 0.244124 1.146521 -1.003276
v 0.244124 0.867521 0.996724
v 0.244124 0.586714 -3.367463
v 0.244124 0.586714 -3.972589
v 0.244124 0.500000 1.375165
v 0.244124 0.867521 1.375165
v 0.753684 0.544764 -2.409126
v 0.753684 0.544764 -0.365536
v 0.753684 0.120800 -0.365536
v 0.753684 -0.245820 -2.409126
v 0.753684 0.544764 -1.510707
v 0.753684 -0.245820 -1.510707
v 0.753684 -0.568458 -0.365536
v 0.753684 -0.568458 -1.460730
v 0.809597 0.285228 -3.108860
v 0.809597 0.009495 -3.108860
v 0.753684 0.435027 1.028621
v 0.753684 0.285470 1.028621
v 0.753684 -0.086024 1.028621
v 0.431675 -0.567364 2.555666
v 0.855250 0.075968 2.555666
v 0.855250 0.500000 2.555666
v 0.351652 -0.418867 3.851099
v 0.706752 0.120464 3.851099
v 0.855250 0.500000 3.851099
v 0.500923 1.290218 2.555666
v 0.404766 1.141721 3.851099
v 0.662338 0.500000 1.698049
v 0.617644 0.500000 2.555666
v 0.342585 0.500000 1.698049
v 0.244124 0.867521 2.538781
v 0.244124 0.500000 2.538781
v 0.431675 -0.567364 3.851099
v 0.855250 0.075968 3.851099
v 0.706752 0.468231 3.851099
v 0.500923 1.290218 3.851099
v 1.040119 0.501895 -2.297261
v 1.040119 0.501895 -0.422404
v 1.040119 0.112936 -0.422404
v 1.040119 -0.223413 -2.297261
v 1.040119 0.501895 -1.473023
v 1.040119 -0.223413 -1.473023
v 1.040119 -0.489370 -0.422404
v 1.040119 -0.489370 -1.427172
v 0.984207 0.269072 -3.108860
v 0.984207 0.013178 -3.108860
v 1.040119 0.401218 0.856641
v 1.040119 0.264010 0.856641
v 1.040119 -0.076811 0.856641
v 0.770959 0.497859 -0.253063
v 0.770959 0.073895 -0.253063
v 0.770959 0.497859 -1.585239
v 0.770959 -0.292725 -1.585239
v 0.292540 0.497859 -1.585239
v 0.292540 0.497859 -0.253063
v 0.292540 0.073895 -0.253063
v 0.292540 -0.292725 -1.585239
v 0.672559 0.437808 3.751414
v 0.348062 -0.323201 3.751414
v 0.672559 0.169650 3.751414
v 0.396598 1.053254 3.751414
v 1.157100 0.468941 -1.450125
v 1.157100 0.468941 -0.518753
v 1.157100 -0.174045 -1.450125
v 1.157100 -0.174045 -2.180813
v 1.157100 0.468941 -2.180813
v 1.157100 0.124129 -0.518753
v 1.157100 0.307735 -2.821864
v 1.157100 -0.012839 -2.821864
v 1.157100 0.379691 0.615121
v 1.157100 0.258055 0.615121
v 0.753684 0.346553 -3.108860
v 0.753684 -0.047609 -3.108860
v 1.040119 0.320049 -3.108860
v 1.040119 -0.041568 -3.108860
v 0.809597 0.285228 -2.205640
v 0.809597 0.009495 -2.205640
v 0.984207 0.269072 -2.205640
v 0.984207 0.013178 -2.205640
vn -1.0000 -0.0000 -0.0000
vn -0.0000 1.0000 -0.0000
vn -0.8091 -0.5327 -0.2481
vn -0.0000 -0.8009 -0.5988
vn -0.0000 -1.0000 -0.0000
vn -0.8352 -0.5499 -0.0000
vn -0.0000 0.9630 0.2695
vn -0.0000 0.9094 -0.4158
vn -0.7981 -0.5255 -0.2947
vn -0.9529 -0.0000 -0.3033
vn -0.0000 0.8804 -0.4743
vn -0.0000 -0.8944 -0.4473
vn -0.0000 -0.0000 -1.0000
vn -0.0000 -0.9630 -0.2695
vn -0.0000 -0.9094 0.4158
vn -0.0000 0.9904 0.1382
vn -0.0000 0.7194 -0.6946
vn 1.0000 -0.0000 -0.0000
vn -0.0000 -0.9378 0.3472
vn -0.9748 -0.0024 -0.2232
vn -0.8352 -0.5499 0.0129
vn 0.9459 -0.0000 0.3245
vn 0.8359 -0.3748 0.4011
vn -0.9125 0.4091 -0.0000
vn -0.9756 -0.0000 -0.2195
vn -0.9429 0.1393 -0.3024
vn -0.0000 0.7354 -0.6776
vn -0.0000 -0.0000 1.0000
vn -0.9260 -0.0000 -0.3775
vn -0.9000 -0.0000 0.4359
vn -0.5047 0.8402 -0.1984
vn -0.3238 -0.9011 0.2885
vn -0.1626 0.9837 0.0774
vn -0.1480 0.9890 -0.0000
vn -0.2662 -0.9639 -0.0000
vn -0.5148 -0.0000 0.8573
vn -0.0953 -0.9654 -0.2428
vn -0.1629 0.9569 -0.2406
vn -0.2395 -0.9237 -0.2990
vn -0.2634 -0.9148 0.3063
vn -0.0000 -0.9642 0.2653
vn -0.0000 0.7215 0.6924
vn -0.0000 -0.7479 0.6638
vn 0.7294 0.4802 0.4872
vn -0.3265 0.9423 0.0742
vn -0.2712 0.9625 -0.0000
vn -0.5849 -0.7894 -0.1864
vn -0.3888 -0.9213 -0.0000
vn -0.1882 -0.9753 0.1152
vn 0.0921 -0.9957 -0.0000
vn 0.0211 0.9998 -0.0000
vn 0.8091 -0.5327 -0.2481
vn 0.8352 -0.5499 -0.0000
vn 0.7981 -0.5255 -0.2947
vn 0.9529 -0.0000 -0.3033
vn 0.9748 -0.0024 -0.2232
vn 0.8352 -0.5499 0.0129
vn -0.9459 -0.0000 0.3245
vn -0.8359 -0.3748 0.4011
vn 0.9125 0.4091 -0.0000
vn 0.9756 -0.0000 -0.2195
vn 0.9429 0.1393 -0.3024
vn 0.9260 -0.0000 -0.3775
vn 0.9000 -0.0000 0.4359
vn 0.5047 0.8402 -0.1984
vn 0.3238 -0.9011 0.2885
vn 0.1626 0.9837 0.0774
vn 0.1480 0.9890 -0.0000
vn 0.2662 -0.9639 -0.0000
vn 0.5148 -0.0000 0.8573
vn 0.0953 -0.9654 -0.2428
vn 0.1629 0.9569 -0.2406
vn 0.2395 -0.9237 -0.2990
vn 0.2634 -0.9148 0.3063
vn -0.7294 0.4802 0.4872
vn 0.3265 0.9423 0.0742
vn 0.2712 0.9625 -0.0000
vn 0.5849 -0.7894 -0.1864
vn 0.3888 -0.9213 -0.0000
vn 0.1882 -0.9753 0.1152
vn -0.0921 -0.9957 -0.0000
vn -0.0211 0.9998 -0.0000
vt 0.750000 0.500000
vt 0.875000 0.500000
vt 0.750000 0.750000
vt 0.875000 0.750000
vt 0.767860 0.750000
vt 0.875000 0.750000
vt 0.000000 0.000000
vt 0.759360 0.750000
vt 0.756743 0.750000
vt 0.875000 0.750000
vt 0.856802 0.500000
vt 0.768160 0.500000
vt 0.856092 0.500000
vt 0.768869 0.500000
s 0
f 11/1/1 13/2/1 2/2/1 3/1/1
f 13/2/2 14/2/2 1/2/2 2/2/2
f 8/1/3 11/1/3 3/1/3 4/1/3
f 7/1/4 8/1/4 4/1/4 5/1/4
f 9/3/5 8/1/5 7/1/5 6/3/5
f 10/3/6 11/1/6 8/1/6 9/3/6
f 13/2/7 12/4/7 15/4/7 14/2/7
f 11/1/1 10/3/1 12/4/1 13/2/1
f 3/1/1 2/2/1 17/2/1 18/1/1
f 5/1/5 4/1/5 19/1/5 20/1/5
f 4/1/6 3/1/6 18/1/6 19/1/6
f 2/2/8 1/2/8 16/2/8 17/2/8
f 19/1/6 18/1/6 23/1/6 24/1/6
f 17/2/2 16/2/2 21/2/2 22/2/2
f 18/1/1 17/2/1 22/2/1 23/1/1
f 20/1/5 19/1/5 24/1/5 25/1/5
f 24/1/9 23/1/9 28/1/9 29/1/9
f 23/1/10 22/2/10 27/2/10 28/1/10
f 22/2/11 21/2/11 26/2/11 27/2/11
f 25/1/12 24/1/12 29/1/12 30/1/12
f 29/1/13 28/1/13 27/2/13 26/2/13 30/1/13
f 34/2/5 32/2/5 31/2/5 35/2/5
f 34/2/14 35/2/14 36/4/14 33/4/14
f 32/2/15 38/2/15 37/2/15 31/2/15
f 38/2/5 40/2/5 39/2/5 37/2/5
f 44/2/2 42/2/2 41/2/2 43/2/2
f 44/2/16 46/4/16 45/4/16 42/2/16
f 43/2/8 41/2/8 47/2/8 48/2/8
f 48/2/2 47/2/2 49/2/2 50/2/2
f 46/4/1 33/4/1 51/4/1 53/4/1
f 39/2/17 40/2/17 50/2/17 49/2/17
f 34/2/1 33/4/1 46/4/1 44/2/1
f 32/2/1 34/2/1 44/2/1 43/2/1
f 38/2/1 32/2/1 43/2/1 48/2/1
f 40/2/1 38/2/1 48/2/1 50/2/1
f 45/4/2 46/4/2 53/4/2 52/4/2
f 52/4/2 53/4/2 85/4/2 84/4/2
f 60/1/18 58/1/18 55/2/18 59/2/18
f 57/1/18 61/1/18 62/1/18 60/1/18
f 57/1/18 60/1/18 59/2/18 56/2/18
f 58/1/18 133/1/18 132/2/18 55/2/18
f 57/1/18 66/1/18 67/1/18 61/1/18
f 56/2/18 65/2/18 66/1/18 57/1/18
f 9/3/19 6/3/19 68/3/19 69/3/19
f 12/4/20 10/3/20 70/3/20 81/4/20
f 10/3/21 9/3/21 69/3/21 70/3/21
f 15/4/2 12/4/2 81/4/2 83/4/2 80/4/2
f 82/4/13 71/4/13 76/4/13
f 91/4/22 74/5/22 120/5/22 115/4/22
f 69/3/5 68/3/5 72/3/5 88/3/5
f 71/4/1 70/3/1 90/3/1 75/4/1
f 70/3/6 69/3/6 88/3/6 90/3/6
f 77/4/2 76/4/2 93/4/2 79/4/2
f 78/6/23 91/4/23 115/4/23 121/6/23
f 71/4/24 75/4/24 93/4/24 76/4/24
f 81/4/2 71/4/2 82/4/2
f 81/4/25 70/3/25 71/4/25
f 83/4/26 82/4/26 76/4/26
f 77/4/27 80/4/27 83/4/27 76/4/27
f 84/4/28 85/4/28 86/4/28 87/4/28
f 82/4/2 83/4/2 81/4/2
f 53/4/1 51/4/1 86/4/1 85/4/1
f 51/7/5 54/7/5 87/7/5 86/7/5
f 89/8/28 73/9/28 88/3/28 72/3/28
f 73/9/28 74/5/28 90/3/28 88/3/28
f 74/5/28 91/4/28 75/4/28 90/3/28
f 78/6/28 92/10/28 79/4/28 93/4/28
f 91/4/28 78/6/28 93/4/28 75/4/28
f 58/1/18 60/1/18 62/1/18
f 134/2/29 135/1/29 129/1/29 128/2/29
f 96/1/1 99/1/1 101/1/1 100/1/1
f 105/1/30 104/2/30 130/2/30 131/1/30
f 94/2/31 134/2/31 128/2/31 126/2/31
f 96/1/1 100/1/1 106/1/1 105/1/1
f 99/1/32 96/1/32 127/1/32 124/1/32
f 97/1/1 101/1/1 99/1/1
f 63/11/1 64/12/1 137/12/1 136/11/1
f 65/2/33 56/2/33 95/2/33 104/2/33
f 56/2/34 59/2/34 98/2/34 95/2/34
f 62/1/35 61/1/35 100/1/35 101/1/35
f 67/1/36 66/1/36 105/1/36 106/1/36
f 59/2/34 55/2/34 94/2/34 98/2/34
f 133/1/37 58/1/37 97/1/37 135/1/37
f 55/2/38 132/2/38 134/2/38 94/2/38
f 58/1/39 62/1/39 101/1/39 97/1/39
f 61/1/40 67/1/40 106/1/40 100/1/40
f 66/1/36 65/2/36 104/2/36 105/1/36
f 108/1/1 107/2/1 109/2/1 110/1/1
f 113/1/18 114/1/18 111/2/18 112/2/18
f 108/1/41 110/1/41 114/1/41 113/1/41
f 109/2/2 107/2/2 112/2/2 111/2/2
f 110/1/13 109/2/13 111/2/13 114/1/13
f 107/2/28 108/1/28 113/1/28 112/2/28
f 117/8/28 116/4/28 115/4/28 120/5/28 119/9/28
f 115/4/28 116/4/28 118/10/28 121/6/28
f 73/9/42 89/8/42 117/8/42 119/9/42
f 92/10/43 78/6/43 121/6/43 118/10/43
f 74/5/44 73/9/44 119/9/44 120/5/44
f 124/1/1 122/2/1 126/2/1 125/1/1
f 127/1/1 123/2/1 122/2/1 124/1/1
f 125/1/1 126/2/1 128/2/1 129/1/1
f 123/2/1 127/1/1 131/1/1 130/2/1
f 104/2/45 95/2/45 123/2/45 130/2/45
f 95/2/46 98/2/46 122/2/46 123/2/46
f 98/2/46 94/2/46 126/2/46 122/2/46
f 135/1/47 97/1/47 125/1/47 129/1/47
f 97/1/48 99/1/48 124/1/48 125/1/48
f 96/1/49 105/1/49 131/1/49 127/1/49
f 64/12/13 63/11/13 132/2/13 133/1/13
f 102/13/13 103/14/13 135/1/13 134/2/13
f 103/14/13 64/12/13 133/1/13 135/1/13
f 63/11/13 102/13/13 134/2/13 132/2/13
f 136/11/13 137/12/13 139/14/13 138/13/13
f 102/13/50 63/11/50 136/11/50 138/13/50
f 103/14/18 102/13/18 138/13/18 139/14/18
f 64/12/51 103/14/51 139/14/51 137/12/51
f 146/1/18 141/1/18 140/2/18 148/2/18
f 148/2/2 140/2/2 1/2/2 14/2/2
f 143/1/52 142/1/52 141/1/52 146/1/52
f 7/1/4 5/1/4 142/1/4 143/1/4
f 144/3/5 6/3/5 7/1/5 143/1/5
f 145/3/53 144/3/53 143/1/53 146/1/53
f 148/2/7 14/2/7 15/4/7 147/4/7
f 146/1/18 148/2/18 147/4/18 145/3/18
f 141/1/18 150/1/18 149/2/18 140/2/18
f 5/1/5 20/1/5 151/1/5 142/1/5
f 142/1/53 151/1/53 150/1/53 141/1/53
f 140/2/8 149/2/8 16/2/8 1/2/8
f 151/1/53 154/1/53 153/1/53 150/1/53
f 149/2/2 152/2/2 21/2/2 16/2/2
f 150/1/18 153/1/18 152/2/18 149/2/18
f 20/1/5 25/1/5 154/1/5 151/1/5
f 154/1/54 157/1/54 156/1/54 153/1/54
f 153/1/55 156/1/55 155/2/55 152/2/55
f 152/2/11 155/2/11 26/2/11 21/2/11
f 25/1/12 30/1/12 157/1/12 154/1/12
f 157/1/13 30/1/13 26/2/13 155/2/13 156/1/13
f 160/2/5 35/2/5 31/2/5 158/2/5
f 160/2/14 159/4/14 36/4/14 35/2/14
f 158/2/15 31/2/15 37/2/15 161/2/15
f 161/2/5 37/2/5 39/2/5 162/2/5
f 164/2/2 163/2/2 41/2/2 42/2/2
f 164/2/16 42/2/16 45/4/16 165/4/16
f 163/2/8 166/2/8 47/2/8 41/2/8
f 166/2/2 167/2/2 49/2/2 47/2/2
f 165/4/18 169/4/18 168/4/18 159/4/18
f 39/2/17 49/2/17 167/2/17 162/2/17
f 160/2/18 164/2/18 165/4/18 159/4/18
f 158/2/18 163/2/18 164/2/18 160/2/18
f 161/2/18 166/2/18 163/2/18 158/2/18
f 162/2/18 167/2/18 166/2/18 161/2/18
f 45/4/2 52/4/2 169/4/2 165/4/2
f 52/4/2 84/4/2 194/4/2 169/4/2
f 175/1/1 174/2/1 170/2/1 173/1/1
f 172/1/1 175/1/1 177/1/1 176/1/1
f 172/1/1 171/2/1 174/2/1 175/1/1
f 173/1/1 170/2/1 235/2/1 236/1/1
f 172/1/1 176/1/1 182/1/1 181/1/1
f 171/2/1 172/1/1 181/1/1 180/2/1
f 144/3/19 183/3/19 68/3/19 6/3/19
f 147/4/56 191/4/56 184/3/56 145/3/56
f 145/3/57 184/3/57 183/3/57 144/3/57
f 15/4/2 80/4/2 193/4/2 191/4/2 147/4/2
f 192/4/13 189/4/13 185/4/13
f 198/4/58 221/4/58 223/5/58 187/5/58
f 183/3/5 196/3/5 72/3/5 68/3/5
f 185/4/18 188/4/18 197/3/18 184/3/18
f 184/3/53 197/3/53 196/3/53 183/3/53
f 77/4/2 79/4/2 199/4/2 189/4/2
f 190/6/59 224/6/59 221/4/59 198/4/59
f 185/4/60 189/4/60 199/4/60 188/4/60
f 191/4/2 192/4/2 185/4/2
f 191/4/61 185/4/61 184/3/61
f 193/4/62 189/4/62 192/4/62
f 77/4/27 189/4/27 193/4/27 80/4/27
f 84/4/28 87/4/28 195/4/28 194/4/28
f 192/4/2 191/4/2 193/4/2
f 169/4/18 194/4/18 195/4/18 168/4/18
f 168/7/5 195/7/5 87/7/5 54/7/5
f 89/8/28 72/3/28 196/3/28 186/9/28
f 186/9/28 196/3/28 197/3/28 187/5/28
f 187/5/28 197/3/28 188/4/28 198/4/28
f 190/6/28 199/4/28 79/4/28 92/10/28
f 198/4/28 188/4/28 199/4/28 190/6/28
f 173/1/1 177/1/1 175/1/1
f 237/2/63 231/2/63 232/1/63 238/1/63
f 202/1/18 206/1/18 207/1/18 205/1/18
f 211/1/64 234/1/64 233/2/64 210/2/64
f 200/2/65 229/2/65 231/2/65 237/2/65
f 202/1/18 211/1/18 212/1/18 206/1/18
f 205/1/66 227/1/66 230/1/66 202/1/66
f 203/1/18 205/1/18 207/1/18
f 178/11/18 239/11/18 240/12/18 179/12/18
f 180/2/67 210/2/67 201/2/67 171/2/67
f 171/2/68 201/2/68 204/2/68 174/2/68
f 177/1/69 207/1/69 206/1/69 176/1/69
f 182/1/70 212/1/70 211/1/70 181/1/70
f 174/2/68 204/2/68 200/2/68 170/2/68
f 236/1/71 238/1/71 203/1/71 173/1/71
f 170/2/72 200/2/72 237/2/72 235/2/72
f 173/1/73 203/1/73 207/1/73 177/1/73
f 176/1/74 206/1/74 212/1/74 182/1/74
f 181/1/70 211/1/70 210/2/70 180/2/70
f 214/1/18 216/1/18 215/2/18 213/2/18
f 219/1/1 218/2/1 217/2/1 220/1/1
f 214/1/41 219/1/41 220/1/41 216/1/41
f 215/2/2 217/2/2 218/2/2 213/2/2
f 216/1/13 220/1/13 217/2/13 215/2/13
f 213/2/28 218/2/28 219/1/28 214/1/28
f 117/8/28 222/9/28 223/5/28 221/4/28 116/4/28
f 221/4/28 224/6/28 118/10/28 116/4/28
f 186/9/42 222/9/42 117/8/42 89/8/42
f 92/10/43 118/10/43 224/6/43 190/6/43
f 187/5/75 223/5/75 222/9/75 186/9/75
f 227/1/18 228/1/18 229/2/18 225/2/18
f 230/1/18 227/1/18 225/2/18 226/2/18
f 228/1/18 232/1/18 231/2/18 229/2/18
f 226/2/18 233/2/18 234/1/18 230/1/18
f 210/2/76 233/2/76 226/2/76 201/2/76
f 201/2/77 226/2/77 225/2/77 204/2/77
f 204/2/77 225/2/77 229/2/77 200/2/77
f 238/1/78 232/1/78 228/1/78 203/1/78
f 203/1/79 228/1/79 227/1/79 205/1/79
f 202/1/80 230/1/80 234/1/80 211/1/80
f 179/12/13 236/1/13 235/2/13 178/11/13
f 208/13/13 237/2/13 238/1/13 209/14/13
f 209/14/13 238/1/13 236/1/13 179/12/13
f 178/11/13 235/2/13 237/2/13 208/13/13
f 239/11/13 241/13/13 242/14/13 240/12/13
f 208/13/81 241/13/81 239/11/81 178/11/81
f 209/14/1 242/14/1 241/13/1 208/13/1
f 179/12/82 240/12/82 242/14/82 209/14/82
